<svg width="197" height="219" viewBox="0 0 197 219" fill="none" xmlns="http://www.w3.org/2000/svg">
<path d="M26.5079 9.91891C21.9553 12.0398 15.6827 19.2104 12.6476 25.9771C10.7254 30.2189 10.7254 30.2189 12.9511 35.9756C22.7646 61.2244 22.8658 61.9313 15.6827 78.9995C3.03647 109.096 4.75636 118.287 30.2512 156.968C61.5128 204.233 70.517 211 101.576 211C116.347 210.899 122.215 209.99 127.476 206.556C136.885 200.295 161.064 156.564 171.485 126.871C176.948 111.116 178.971 101.016 178.971 87.9881C178.971 74.4547 180.894 64.3552 185.75 51.9328C190.201 40.3184 189.999 36.4806 184.232 28.906C179.578 22.7453 175.026 20.1194 168.956 20.1194C163.998 20.1194 157.422 23.2502 155.196 26.4821C153.072 29.7139 146.698 33.1478 141.437 33.8547C137.997 34.2587 134.558 33.6527 125.857 30.8249C109.973 25.5731 100.969 23.8562 89.4358 23.8562C80.634 23.7552 78.5094 24.1592 72.945 26.4821C68.5947 28.401 65.8631 29.007 63.9409 28.603C62.5245 28.199 57.6683 24.4622 53.1157 20.3214C45.1233 12.9488 36.9285 8 32.7805 8C31.6676 8 28.8349 8.90896 26.5079 9.91891ZM36.5238 12.0398C38.8507 12.7468 43.5045 16.0796 49.1701 21.2304C62.1198 33.0468 64.6491 33.8547 75.6766 28.906C85.0855 24.6642 102.79 26.4821 127.375 34.3597C141.64 39.0055 147.912 37.6925 157.928 28.401C162.177 24.3612 163.492 23.7552 168.146 23.3512C172.901 22.9473 173.913 23.2503 176.847 25.7751C182.108 30.1179 186.053 36.1776 186.053 39.7124C186.053 41.4294 184.637 46.3781 183.018 50.6199C177.858 63.8503 176.746 69.304 175.936 87.2811C174.925 106.571 173.205 114.651 165.718 133.84C155.803 158.988 134.558 196.962 126.464 203.627C122.316 207.061 114.526 208.273 98.6423 207.667C81.6457 207.162 76.2837 205.647 67.7854 199.285C59.8941 193.326 51.3958 182.822 35.2086 158.685C9.7137 120.71 6.77976 110.207 15.5816 87.6851C24.0799 65.9711 24.4845 64.4562 23.7763 58.5985C23.3717 55.5687 21.0448 47.893 18.5155 41.4294L13.8617 29.7139L16.0874 25.6741C19.8307 19.1095 23.8775 14.4637 27.4185 12.7468C31.3641 10.7269 31.6676 10.7269 36.5238 12.0398Z" stroke="#66FFC8" stroke-width="15" stroke-linejoin="round"/>
</svg>
