<svg width="197" height="219" viewBox="0 0 197 219" fill="none" xmlns="http://www.w3.org/2000/svg">
<path d="M60.9045 30.1461L36.2985 12.9219C11.2302 13.9824 13.4093 24.0247 20.3045 43.6795C25.7235 62.9762 22.9217 73.5373 15.3833 92.2764C6.52116 128.927 22.9827 153.489 70.747 203.004L125.495 205.464C151.501 173.697 166.426 157.404 178.398 63.3643C184.411 42.2287 185.4 33.1613 175.938 30.1461C166.03 21.8377 159.029 23.0566 143.95 35.6825C99.3525 24.9585 79.2646 22.4168 60.9045 30.1461Z" fill="#66FFC8"/>
<path d="M26.5084 9.91891C21.9556 12.0398 15.6829 19.2104 12.6477 25.9771C10.7255 30.2189 10.7255 30.2189 12.9513 35.9756C22.765 61.2244 22.8662 61.9313 15.6829 78.9995C3.03634 109.096 4.75628 118.287 30.2518 156.968C61.5142 204.233 70.5185 211 101.579 211C116.35 210.899 122.218 209.99 127.479 206.556C136.888 200.295 161.068 156.564 171.489 126.871C176.952 111.116 178.976 101.016 178.976 87.9881C178.976 74.4547 180.898 64.3552 185.754 51.9328C190.206 40.3184 190.003 36.4806 184.237 28.906C179.583 22.7453 175.03 20.1194 168.96 20.1194C164.002 20.1194 157.426 23.2502 155.2 26.4821C153.075 29.7139 146.702 33.1478 141.441 33.8547C138.001 34.2587 134.561 33.6527 125.86 30.8249C109.976 25.5731 100.971 23.8562 89.4378 23.8562C80.6358 23.7552 78.5112 24.1592 72.9467 26.4821C68.5962 28.401 65.8646 29.007 63.9423 28.603C62.5259 28.199 57.6696 24.4622 53.1168 20.3214C45.1242 12.9488 36.9292 8 32.7811 8C31.6682 8 28.8354 8.90896 26.5084 9.91891ZM36.5245 12.0398C38.8515 12.7468 43.5054 16.0796 49.1711 21.2304C62.1212 33.0468 64.6505 33.8547 75.6783 28.906C85.0874 24.6642 102.793 26.4821 127.378 34.3597C141.643 39.0055 147.916 37.6925 157.932 28.401C162.181 24.3612 163.496 23.7552 168.15 23.3512C172.905 22.9473 173.917 23.2503 176.851 25.7751C182.112 30.1179 186.058 36.1776 186.058 39.7124C186.058 41.4294 184.641 46.3781 183.023 50.6199C177.863 63.8503 176.75 69.304 175.94 87.2811C174.929 106.571 173.209 114.651 165.722 133.84C155.807 158.988 134.561 196.962 126.467 203.627C122.319 207.061 114.529 208.273 98.6445 207.667C81.6475 207.162 76.2854 205.647 67.7869 199.285C59.8954 193.326 51.3969 182.822 35.2093 158.685C9.71374 120.71 6.77973 110.207 15.5818 87.6851C24.0803 65.9711 24.485 64.4562 23.7767 58.5985C23.3721 55.5687 21.0451 47.893 18.5158 41.4294L13.8618 29.7139L16.0876 25.6741C19.831 19.1095 23.8779 14.4637 27.419 12.7468C31.3647 10.7269 31.6682 10.7269 36.5245 12.0398Z" fill="#66FFC8" stroke="black" stroke-width="15" stroke-linejoin="round"/>
</svg>
